:SAMPLES-PER-SECOND 30
:FULLY-SPECIFIED
:DEGREES
112
root  -28.1957 38.9894 -16.1644 -177.056 -63.3878 167.562
RightUpLeg  -13.12 -20.4374 3.9572
RightLeg  10.786 -36.4346 5.44003
RightFoot  -0.754976 2.03128 -21.5703
RightToes  0.000482159 0.542163 -0.142577
Spine  19.6631 -1.46409 0.52279
Spine1  9.27575 -2.70846 4.04364
HEad  8.68611 -16.3589 2.77596
LeftShoulder1  9.78965 -15.5891 -44.665
LeftArm  -7.09489 2.43801 -35.7863
LeftForeArm  13.3505 -56.3096 -15.8894
LeftHand  -0.25398 0.0180481 5.50724
RightShoulder  5.13408 9.58881 33.2708
RightArm  -3.26042 -2.50088 33.729
RightForeArm  -22.8369 62.2637 24.2476
RightHand  0.329809 -9.70442 -10.2732
LeftUpLeg  3.46147 30.2146 -9.10298
LeftLeg  36.5866 1.79674 1.7312
LeftFoot  -8.54746 0.257987 -6.81757
LeftToes  1.06247e-005 4.65854e-005 -8.18501e-006
113
root  -26.419 38.6444 -16.5481 -176.552 -65.0236 166.327
RightUpLeg  -19.6098 -39.8422 11.3908
RightLeg  14.9974 -16.0769 3.31946
RightFoot  2.81906 2.3294 -18.6761
RightToes  0.000482159 0.542163 -0.142577
Spine  20.2321 -1.03928 -2.25182
Spine1  9.28443 -3.09834 5.08456
HEad  8.00226 -13.0613 3.05202
LeftShoulder1  9.50021 -15.3849 -43.7698
LeftArm  -8.81319 2.3938 -36.2121
LeftForeArm  14.5141 -57.7839 -16.8016
LeftHand  -0.25398 0.0180481 5.50724
RightShoulder  5.1193 9.60519 33.1095
RightArm  -3.02454 -0.92738 34.8447
RightForeArm  -24.433 62.1899 24.2755
RightHand  0.33798 -9.15946 -11.816
LeftUpLeg  5.3807 27.1371 -10.5796
LeftLeg  30.5572 5.33155 3.76851
LeftFoot  -17.1521 0.0820406 -0.0456757
LeftToes  1.06247e-005 4.65854e-005 -8.18501e-006
114
root  -24.4994 38.2551 -16.9146 -175.334 -66.5599 163.961
RightUpLeg  -30.564 -55.2526 20.8174
RightLeg  21.6189 6.48396 1.66234
RightFoot  7.24512 0.702442 -4.19262
RightToes  0.000482159 0.542163 -0.142577
Spine  21.955 -0.538995 -5.3554
Spine1  9.39623 -3.28706 5.51609
HEad  5.9795 -10.1374 4.27031
LeftShoulder1  9.11948 -15.2286 -42.2813
LeftArm  -10.3817 1.37568 -36.4583
LeftForeArm  15.6681 -59.5535 -18.0208
LeftHand  -0.25398 0.0180481 5.50724
RightShoulder  5.23334 9.90094 33.0984
RightArm  -2.95119 1.46943 36.1682
RightForeArm  -26.1973 61.8005 23.9621
RightHand  0.323948 -8.62504 -13.1138
LeftUpLeg  4.14919 25.343 -11.2854
LeftLeg  30.0673 8.0127 5.35783
LeftFoot  -21.8544 0.481681 3.96237
LeftToes  1.06247e-005 4.65854e-005 -8.18501e-006
115
root  -22.6673 37.8467 -17.296 -171.594 -68.1542 159.528
RightUpLeg  -31.029 -48.296 13.7785
RightLeg  28.652 10.7905 6.1601
RightFoot  9.28819 -2.95424 16.7313
RightToes  0.000482159 0.542163 -0.142577
Spine  22.8008 -0.0618892 -8.10666
Spine1  9.87415 -3.10061 4.80509
HEad  3.88891 -8.15884 5.17299
LeftShoulder1  8.85539 -15.1937 -41.0473
LeftArm  -10.9958 -0.956776 -36.1851
LeftForeArm  15.5194 -59.9949 -18.4024
LeftHand  -0.25398 0.0180481 5.50724
RightShoulder  5.35317 10.2359 33.0182
RightArm  -3.3625 3.46282 37.4886
RightForeArm  -27.5621 61.2859 23.4983
RightHand  0.258737 -7.75749 -14.4643
LeftUpLeg  0.413736 24.7371 -12.0802
LeftLeg  33.4757 7.56978 5.71461
LeftFoot  -23.1495 0.719988 5.63484
LeftToes  1.06247e-005 4.65854e-005 -8.18501e-006
116
root  -20.9554 37.6125 -17.7002 -168.007 -69.7161 155.772
RightUpLeg  -31.1459 -42.0794 6.84031
RightLeg  34.4076 16.506 11.5647
RightFoot  7.80411 -4.92277 28.9672
RightToes  0.000482159 0.542163 -0.142577
Spine  22.903 0.250568 -8.95473
Spine1  10.1937 -2.3492 2.99643
HEad  3.13603 -7.16561 4.95913
LeftShoulder1  8.79711 -15.224 -40.6811
LeftArm  -10.7782 -4.07015 -35.7026
LeftForeArm  14.1246 -58.4105 -17.3072
LeftHand  -0.25398 0.0180481 5.50724
RightShoulder  5.41815 10.4022 33.019
RightArm  -3.86347 4.38815 38.1755
RightForeArm  -29.0463 60.5767 22.8646
RightHand  0.155922 -6.75374 -15.782
LeftUpLeg  -3.39037 24.2957 -12.2427
LeftLeg  36.1656 6.09927 5.16542
LeftFoot  -22.5566 0.751907 6.27342
LeftToes  1.06247e-005 4.65854e-005 -8.18501e-006
117
root  -19.2424 37.8161 -18.0882 -168.151 -70.9453 156.077
RightUpLeg  -29.4043 -34.649 0.620966
RightLeg  37.1584 15.1125 11.7245
RightFoot  4.96376 -3.95806 27.2385
RightToes  0.000482159 0.542163 -0.142577
Spine  23.2607 0.479303 -7.29662
Spine1  10.1599 -1.18188 0.823202
HEad  3.80148 -6.43074 4.0218
LeftShoulder1  8.79427 -15.1162 -40.9235
LeftArm  -10.4639 -6.87562 -35.5825
LeftForeArm  12.9361 -55.8258 -15.6124
LeftHand  -0.25398 0.0180481 5.50724
RightShoulder  5.50036 10.4657 33.4285
RightArm  -3.91251 4.75739 38.0503
RightForeArm  -31.1609 59.3305 21.8027
RightHand  0.0803678 -6.14542 -16.4155
LeftUpLeg  -5.87213 23.908 -10.9563
LeftLeg  35.4508 5.3056 4.43766
LeftFoot  -20.0135 0.634143 6.78321
LeftToes  1.06247e-005 4.65854e-005 -8.18501e-006
